<?xml version="1.0" encoding="UTF-8" standalone="no"?>
<svg
   width="850"
   height="850"
   version="1.1"
   id="svg17"
   sodipodi:docname="logo.svg"
   inkscape:version="1.1.2 (b8e25be8, 2022-02-05)"
   xmlns:inkscape="http://www.inkscape.org/namespaces/inkscape"
   xmlns:sodipodi="http://sodipodi.sourceforge.net/DTD/sodipodi-0.dtd"
   xmlns="http://www.w3.org/2000/svg"
   xmlns:svg="http://www.w3.org/2000/svg">
  <defs
     id="defs21" />
  <sodipodi:namedview
     id="namedview19"
     pagecolor="#ffffff"
     bordercolor="#666666"
     borderopacity="1.0"
     inkscape:pageshadow="2"
     inkscape:pageopacity="0"
     inkscape:pagecheckerboard="true"
     showgrid="false"
     inkscape:zoom="0.65082373"
     inkscape:cx="351.09353"
     inkscape:cy="484.77028"
     inkscape:window-width="1440"
     inkscape:window-height="847"
     inkscape:window-x="0"
     inkscape:window-y="25"
     inkscape:window-maximized="0"
     inkscape:current-layer="svg17" />
  <path
     id="path11"
     style="fill:#cccccc;stroke:none"
     d="M 415.47656 27.808594 C 411.28131 27.780294 407.0945 27.886228 403 28.423828 C 381.964 31.185828 360.811 32.101619 340 36.886719 C 269.539 53.088119 204.974 86.744144 152 136.08984 C 115.74 169.86784 84.436372 212.478 64.576172 258 C 43.914972 305.358 30.308363 355.176 28.039062 407 C 22.047462 543.828 88.7987 676.7857 202 753.9707 C 243.331 782.1517 289.61 800.74395 338 812.62695 C 383.189 823.72395 432.037 824.58184 478 818.71484 C 604.795 802.53184 719.20619 721.411 777.74219 608 C 809.53819 546.396 824.99194 476.237 821.96094 407 C 817.49394 304.992 771.795 204.76384 697 135.08984 C 643.362 85.125844 576.78 50.778459 505 36.193359 C 479.542 31.020559 454 28 428 28 C 423.8755 28 419.67181 27.836894 415.47656 27.808594 z M 419.70703 46.751953 C 428.47613 46.490864 437.38475 47.316906 446 47.910156 C 473.528 49.805856 500.38 53.595525 527 61.140625 C 629.837 90.289025 718.01819 162.436 764.74219 259 C 788.15819 307.394 800.61594 360.45 802.96094 414 C 803.35894 423.094 802.43506 431.97 802.03906 441 C 799.72206 493.926 787.02523 545.227 763.74023 593 C 710.87523 701.463 601.146 782.92075 481 798.71875 C 424.61 806.13375 367.566 802.93161 313 785.97461 C 270.909 772.89361 231.04 752.51262 196 725.76562 C 164.355 701.61162 136.63039 672.797 114.02539 640 C 37.125791 528.427 26.293013 380.863 85.257812 259 C 102.67331 223.008 126.44406 189.859 154.03906 161 C 205.67906 106.995 276.018 69.715816 349 54.666016 C 369.573 50.423616 390.333 50.137328 411 47.423828 C 413.87575 47.046203 416.784 46.838983 419.70703 46.751953 z " />
  <path
     style="fill:#cccccc;stroke:none"
     d="M671 240C648.267 228.897 628.606 212.25 607 199.204C601.942 196.15 589.008 186.901 583.603 193.318C578.182 199.756 587.455 212.522 590.811 218C603.426 238.593 620.668 257.592 630 280C607.667 270.699 588.542 253.395 568 240.811C562.443 237.407 549.853 228.066 543.319 233.603C536.996 238.961 546.23 252.071 549.319 257C562.702 278.354 578.912 298.299 590 321C566.896 311.378 547.335 293.319 526 280.45C520.921 277.386 508.119 268.126 502.603 274.434C496.81 281.061 506.234 293.419 509.601 299C522.089 319.701 539.62 338.589 549 361C540.733 358.568 533.119 352.743 526 348C513.992 339.999 502.084 331.877 490 324C483.797 319.956 472.079 310.476 464.059 313.607C454.56 317.316 464.437 331.98 467.449 337C480.7 359.087 496.011 379.746 509 402C498.989 398.832 489.677 391.451 481 385.667C475.218 381.812 471.419 378.007 466 384C469.515 388.253 474.433 390.955 479 394C486.728 399.152 494.474 404.429 503 408.204C509.352 411.016 518.258 410.096 516.455 401C514.625 391.764 507.431 382.686 502.333 375C490.763 357.559 476.317 340.301 468 321C491.041 330.596 510.71 348.555 532 361.399C537.099 364.475 549.785 373.984 555.397 367.566C561.19 360.939 551.766 348.581 548.399 343C535.925 322.323 518.365 303.375 509 281C517.424 283.431 524.781 289.188 532 294C544.328 302.219 556.47 310.784 569 318.681C575.09 322.52 586.157 331.432 593.941 328.393C603.212 324.773 593.483 310.017 590.576 305C577.681 282.746 561.992 262.238 549 240C571.38 248.255 590.91 266.376 611 278.95C616.515 282.401 629.159 292.221 635.768 287.254C643.118 281.729 633.426 268.388 630.2 263C617.389 241.605 599.631 222.133 590 199C612.245 211.984 632.884 227.392 655 240.547C659.996 243.519 674.718 253.048 678.393 243.891C681.479 236.199 672.472 225.015 668.681 219C660.77 206.446 652.227 194.346 644 182C639.257 174.881 633.432 167.267 631 159C644.067 164.442 656.808 173.397 668 182C670.518 179.904 671.815 178.057 673 175C666.066 171.14 659.699 166.304 653 162.053C646.626 158.008 639.618 152.613 632 151.329C626.469 150.397 621.781 152.832 622.713 159C622.969 160.691 623.506 162.398 624.093 164C624.999 166.471 626.274 168.738 627.604 171C641.174 194.076 660.683 215.226 671 240M463 529C461.231 533.215 462 538.464 462 543C462 549.325 460.896 556.872 462.637 563C464.939 571.102 470.9 578.552 474.742 586C485.75 607.341 495.862 631.787 497.039 656C497.826 672.193 495.888 687.771 482 698.471C472.868 705.507 462.002 706.001 451 706C424.971 705.998 399.858 694.676 377 683.247C333.464 661.479 294.297 630.297 260 596C224.694 560.694 193.982 522.564 169.424 479C165.785 472.545 162.493 465.81 159.579 459C157.313 453.707 155.036 448.408 153.053 443C142.928 415.384 131.741 368.817 168 355.066C177.636 351.411 187.959 351.758 198 352.834C220.446 355.239 241.962 364.228 262 374.247C270.044 378.269 278.427 384.78 287 387.351C296.97 390.342 310.618 388 321 388C312.269 378.473 298.144 371.953 287 365.579C260.005 350.137 230.131 337.167 199 333.834C185.293 332.367 170.835 332.569 158 338.312C146.467 343.474 138.325 351.476 130.275 361C115.86 378.054 104.659 398.676 98.0255 420C73.5492 498.68 99.1176 585.992 149.449 649C203.035 716.083 289.745 766.954 378 760.911C415.099 758.37 450.858 747.307 481 725.116C493.747 715.731 506.171 705.182 511.934 690C522.291 662.72 514.019 630.015 503.797 604C493.32 577.336 478.993 552.708 463 529M406 431L296 541C288.65 548.35 276.819 556.623 272.18 566C268.981 572.465 274.819 580.29 282 578.551C286.495 577.462 289.876 573.119 293 570L312 551L385 478L409 454C411.716 451.285 415.587 445.687 420 446.593C423.772 447.367 434.8 452.624 436.397 456.225C437.751 459.278 437 463.738 437 467L437 489L437 613L437 644C437 648.638 436.299 654.132 440.228 657.486C445.666 662.128 453.11 658.419 454.606 651.996C455.703 647.284 455 641.812 455 637L455 609L455 483C455 463.891 458.883 440.996 448.536 424C440.685 411.104 427.101 398.891 412 395.669C399.181 392.934 384.086 395 371 395L256 395L206 395C199.845 395.002 191.621 395.163 190.488 403.004C189.714 408.366 194.008 412.332 199 412.891C212.978 414.456 227.93 413 242 413L349 413L380 413C384.058 413 389.995 411.927 393.775 413.603C396.636 414.872 397.532 418.412 398.784 421C400.668 424.895 402.666 428.237 406 431M335 421C346.307 432.899 360.336 442.344 372 454C377.208 450.331 381.502 445.498 386 441C381.36 434.431 371.768 424.263 364 421.589C355.823 418.774 343.624 421 335 421M409 464L396 477C405.467 490.441 418.157 501.721 428 515C429.661 511.041 429 506.26 429 502C429 497.091 430.069 490.677 428.4 486C425.664 478.329 415.514 468.627 409 464z"
     id="path15" />
</svg>
