<?xml version="1.0" standalone="no"?>
<!DOCTYPE svg PUBLIC "-//W3C//DTD SVG 20010904//EN"
 "http://www.w3.org/TR/2001/REC-SVG-20010904/DTD/svg10.dtd">
<svg version="1.0" xmlns="http://www.w3.org/2000/svg"
 width="850.000000pt" height="850.000000pt" viewBox="0 0 850.000000 850.000000"
 preserveAspectRatio="xMidYMid meet">
<metadata>
Created by potrace 1.14, written by Peter Selinger 2001-2017
</metadata>
<g transform="translate(0.000000,850.000000) scale(0.100000,-0.100000)"
fill="#000000" stroke="none">
<path d="M0 4250 l0 -4250 4250 0 4250 0 0 4250 0 4250 -4250 0 -4250 0 0
-4250z m4700 3945 c1116 -136 2080 -694 2745 -1590 411 -553 663 -1195 752
-1915 25 -204 25 -676 0 -880 -69 -558 -230 -1052 -495 -1520 -575 -1017
-1579 -1731 -2732 -1944 -266 -49 -404 -60 -720 -60 -316 0 -454 11 -720 60
-819 151 -1570 557 -2148 1159 -533 557 -897 1267 -1036 2025 -49 265 -60 404
-61 720 0 316 12 452 61 720 195 1056 811 1990 1704 2584 299 199 603 347 945
461 321 107 635 170 1000 199 115 9 576 -3 705 -19z"/>
<path d="M3999 8020 c-1543 -115 -2839 -1115 -3329 -2568 -135 -402 -192 -757
-193 -1197 -1 -440 57 -803 193 -1207 598 -1774 2399 -2843 4240 -2517 1009
179 1904 763 2475 1614 767 1145 853 2606 224 3831 -537 1046 -1547 1792
-2699 1993 -277 49 -658 70 -911 51z m2379 -1055 c39 -18 328 -200 351 -221 2
-1 -6 -16 -18 -33 l-22 -30 -142 93 c-154 101 -225 141 -235 131 -11 -11 39
-94 225 -373 253 -380 289 -458 228 -498 -54 -36 -109 -8 -480 238 -242 162
-385 248 -385 233 0 -22 83 -158 232 -380 241 -361 279 -437 240 -485 -46 -57
-121 -22 -481 219 -243 162 -342 224 -381 236 -21 7 -21 4 11 -56 19 -35 115
-185 214 -334 189 -283 232 -358 242 -419 7 -47 -16 -76 -63 -76 -51 0 -154
59 -464 266 -273 182 -344 224 -356 211 -10 -10 58 -122 238 -392 96 -143 188
-289 206 -324 41 -81 43 -134 7 -157 -51 -34 -109 -4 -503 258 -238 158 -349
225 -358 215 -9 -9 68 -137 239 -392 175 -263 247 -388 247 -430 0 -11 -7 -31
-16 -43 -36 -51 -124 -18 -357 137 l-138 91 21 30 c13 18 26 27 33 23 7 -3 50
-32 97 -63 116 -78 230 -146 258 -154 23 -8 23 -7 -6 51 -17 32 -112 182 -213
333 -242 362 -276 433 -232 482 45 50 123 13 498 -237 279 -186 359 -234 371
-223 11 11 -60 128 -240 397 -95 141 -186 285 -204 320 -41 81 -43 133 -7 157
52 34 105 7 488 -248 251 -167 363 -235 373 -225 9 9 -69 137 -241 397 -192
288 -229 352 -240 413 -9 49 14 77 62 77 52 0 146 -53 443 -250 266 -177 367
-237 377 -226 10 10 -70 143 -240 396 -226 338 -265 422 -220 472 42 46 124 7
480 -230 260 -173 381 -247 390 -238 10 9 -57 120 -215 358 -200 301 -247 379
-262 436 -23 89 39 118 148 67z m-4273 -1820 c186 -38 358 -99 565 -201 177
-86 253 -129 420 -238 l124 -81 -168 -3 -168 -2 -77 43 c-578 333 -1073 409
-1268 194 -260 -288 -2 -1059 611 -1821 296 -368 684 -742 1056 -1017 381
-283 808 -495 1124 -560 139 -29 332 -23 421 11 82 32 164 114 194 194 91 243
5 621 -245 1077 l-74 136 0 169 c0 198 -12 200 125 -19 210 -336 353 -673 400
-946 22 -123 20 -310 -5 -405 -30 -119 -72 -189 -171 -286 -244 -241 -577
-405 -954 -471 -172 -30 -499 -33 -675 -6 -641 99 -1222 417 -1694 926 -410
443 -672 990 -742 1551 -16 134 -18 409 -4 530 48 382 189 712 424 989 132
156 243 222 421 252 73 12 267 3 360 -16z m2111 -639 c111 -55 235 -179 290
-290 l39 -80 3 -1075 c2 -798 -1 -1083 -9 -1104 -25 -60 -108 -71 -149 -20
-20 25 -20 39 -20 1022 l0 996 -68 32 c-37 17 -79 40 -95 50 l-27 18 -673
-673 c-619 -619 -675 -672 -705 -672 -46 0 -92 46 -92 92 0 30 54 86 674 708
l675 675 -25 30 c-13 17 -36 58 -51 93 l-27 62 -997 0 c-979 0 -997 0 -1022
20 -31 25 -42 65 -26 102 25 61 -36 58 1145 55 l1080 -2 80 -39z m-463 -312
l109 -97 -68 -68 -67 -68 -96 88 c-53 47 -138 121 -189 164 l-93 77 148 0 148
0 108 -96z m482 -489 l56 -63 -3 -145 -3 -146 -67 82 c-36 45 -109 130 -161
188 l-95 106 67 67 66 67 43 -47 c23 -25 67 -74 97 -109z"/>
</g>
</svg>
